<?xml version="1.0" encoding="UTF-8"?>
<svg xmlns="http://www.w3.org/2000/svg" xmlns:xlink="http://www.w3.org/1999/xlink" width="300px" height="300px" viewBox="0 0 300 300" version="1.1">
<g id="surface1">
<path style=" stroke:none;fill-rule:nonzero;fill:rgb(100%,100%,100%);fill-opacity:1;" d="M 269.308594 197.210938 C 269.308594 197.210938 268.914062 194.78125 268.679688 194.804688 L 224.558594 199.058594 C 221.046875 199.398438 218.316406 202.199219 218.070312 205.71875 L 216.859375 223.09375 L 182.722656 225.527344 L 180.402344 209.78125 C 179.886719 206.277344 176.828125 203.640625 173.285156 203.640625 L 126.714844 203.640625 C 123.175781 203.640625 120.117188 206.277344 119.597656 209.78125 L 117.277344 225.527344 L 83.140625 223.09375 L 81.929688 205.71875 C 81.683594 202.199219 78.953125 199.398438 75.441406 199.058594 L 31.296875 194.804688 C 31.070312 194.78125 30.902344 197.214844 30.675781 197.214844 L 30.613281 206.761719 L 68 212.792969 L 69.226562 230.324219 C 69.472656 233.871094 72.335938 236.738281 75.886719 236.996094 L 122.902344 240.347656 C 123.078125 240.359375 123.253906 240.367188 123.429688 240.367188 C 126.964844 240.367188 130.015625 237.726562 130.535156 234.226562 L 132.921875 218.023438 L 167.078125 218.023438 L 169.464844 234.226562 C 169.984375 237.726562 173.039062 240.367188 176.574219 240.367188 C 176.75 240.367188 176.921875 240.359375 177.09375 240.347656 L 224.113281 236.996094 C 227.664062 236.738281 230.527344 233.871094 230.773438 230.324219 L 232 212.792969 L 269.371094 206.738281 Z M 269.308594 197.210938 "/>
<path style=" stroke:none;fill-rule:nonzero;fill:rgb(27.843137%,54.901961%,74.901961%);fill-opacity:1;" d="M 30.671875 125.210938 L 30.671875 197.210938 C 30.804688 197.214844 30.9375 197.21875 31.066406 197.230469 L 75.207031 201.488281 C 77.523438 201.710938 79.332031 203.570312 79.496094 205.890625 L 80.855469 225.371094 L 119.359375 228.121094 L 122.011719 210.136719 C 122.359375 207.804688 124.355469 206.078125 126.714844 206.078125 L 173.285156 206.078125 C 175.644531 206.078125 177.640625 207.804688 177.988281 210.136719 L 180.640625 228.121094 L 219.144531 225.371094 L 220.503906 205.890625 C 220.667969 203.570312 222.476562 201.710938 224.792969 201.488281 L 268.914062 197.230469 C 269.046875 197.21875 269.175781 197.214844 269.308594 197.210938 L 269.308594 191.46875 L 269.328125 191.460938 L 269.328125 125.210938 C 275.542969 117.386719 281.429688 108.753906 285.9375 101.492188 C 279.046875 89.761719 270.601562 79.277344 261.578125 69.5625 C 253.203125 73.777344 245.074219 78.550781 237.394531 83.628906 C 233.550781 79.808594 229.226562 76.683594 224.972656 73.421875 C 220.796875 70.0625 216.089844 67.605469 211.625 64.738281 C 212.957031 54.839844 213.613281 45.097656 213.875 34.925781 C 202.355469 29.125 190.074219 25.28125 177.648438 22.519531 C 172.683594 30.859375 168.148438 39.886719 164.199219 48.714844 C 159.511719 47.933594 154.804688 47.644531 150.089844 47.585938 L 150.089844 47.578125 C 150.058594 47.578125 150.027344 47.585938 150 47.585938 C 149.972656 47.585938 149.941406 47.578125 149.910156 47.578125 L 149.910156 47.585938 C 145.191406 47.644531 140.488281 47.933594 135.800781 48.714844 C 131.851562 39.886719 127.316406 30.859375 122.347656 22.519531 C 109.929688 25.28125 97.644531 29.125 86.125 34.925781 C 86.386719 45.097656 87.042969 54.839844 88.378906 64.738281 C 83.90625 67.605469 79.203125 70.0625 75.027344 73.421875 C 70.78125 76.683594 66.445312 79.808594 62.601562 83.628906 C 54.921875 78.550781 46.796875 73.777344 38.421875 69.5625 C 29.394531 79.277344 20.957031 89.761719 14.0625 101.492188 C 19.480469 109.996094 25.292969 118.542969 30.671875 125.210938 Z M 30.671875 125.210938 "/>
<path style=" stroke:none;fill-rule:nonzero;fill:rgb(27.843137%,54.901961%,74.901961%);fill-opacity:1;" d="M 229.707031 210.5625 L 228.34375 230.152344 C 228.175781 232.515625 226.296875 234.394531 223.9375 234.5625 L 176.921875 237.917969 C 176.804688 237.925781 176.691406 237.929688 176.574219 237.929688 C 174.238281 237.929688 172.222656 236.214844 171.878906 233.867188 L 169.183594 215.582031 L 130.820312 215.582031 L 128.121094 233.867188 C 127.761719 236.328125 125.558594 238.097656 123.082031 237.917969 L 76.0625 234.5625 C 73.703125 234.394531 71.824219 232.515625 71.660156 230.152344 L 70.292969 210.5625 L 30.601562 206.738281 C 30.617188 211.003906 30.675781 215.675781 30.675781 216.605469 C 30.675781 258.523438 83.851562 278.675781 149.921875 278.90625 L 150.082031 278.90625 C 216.148438 278.675781 269.308594 258.523438 269.308594 216.605469 C 269.308594 215.65625 269.363281 211.003906 269.386719 206.738281 Z M 229.707031 210.5625 "/>
<path style=" stroke:none;fill-rule:nonzero;fill:rgb(100%,100%,100%);fill-opacity:1;" d="M 114.027344 154.4375 C 114.027344 169.136719 102.121094 181.042969 87.425781 181.042969 C 72.742188 181.042969 60.828125 169.136719 60.828125 154.4375 C 60.828125 139.75 72.742188 127.851562 87.425781 127.851562 C 102.121094 127.851562 114.027344 139.75 114.027344 154.4375 "/>
<path style=" stroke:none;fill-rule:nonzero;fill:rgb(25.490196%,25.098039%,25.882353%);fill-opacity:1;" d="M 107.628906 156.015625 C 107.628906 165.765625 99.726562 173.667969 89.96875 173.667969 C 80.21875 173.667969 72.3125 165.765625 72.3125 156.015625 C 72.3125 146.269531 80.21875 138.359375 89.96875 138.359375 C 99.726562 138.359375 107.628906 146.269531 107.628906 156.015625 "/>
<path style=" stroke:none;fill-rule:nonzero;fill:rgb(100%,100%,100%);fill-opacity:1;" d="M 149.996094 183.460938 C 145.269531 183.460938 141.4375 179.976562 141.4375 175.679688 L 141.4375 151.191406 C 141.4375 146.898438 145.269531 143.410156 149.996094 143.410156 C 154.726562 143.410156 158.570312 146.898438 158.570312 151.191406 L 158.570312 175.679688 C 158.570312 179.976562 154.726562 183.460938 149.996094 183.460938 "/>
<path style=" stroke:none;fill-rule:nonzero;fill:rgb(100%,100%,100%);fill-opacity:1;" d="M 185.972656 154.4375 C 185.972656 169.136719 197.878906 181.042969 212.574219 181.042969 C 227.261719 181.042969 239.171875 169.136719 239.171875 154.4375 C 239.171875 139.75 227.261719 127.851562 212.574219 127.851562 C 197.878906 127.851562 185.972656 139.75 185.972656 154.4375 "/>
<path style=" stroke:none;fill-rule:nonzero;fill:rgb(25.490196%,25.098039%,25.882353%);fill-opacity:1;" d="M 192.375 156.015625 C 192.375 165.765625 200.273438 173.667969 210.023438 173.667969 C 219.78125 173.667969 227.679688 165.765625 227.679688 156.015625 C 227.679688 146.269531 219.78125 138.359375 210.023438 138.359375 C 200.273438 138.359375 192.375 146.269531 192.375 156.015625 "/>
</g>
</svg>
